<mxfile host="app.diagrams.net" modified="2023-07-27T02:24:10.241Z" agent="Mozilla/5.0 (Windows NT 10.0; Win64; x64) AppleWebKit/537.36 (KHTML, like Gecko) Chrome/115.0.0.0 Safari/537.36 Edg/115.0.1901.183" etag="OXjuV5nohQNQFbSNZVmg" version="21.6.5" type="github">
  <diagram id="C5RBs43oDa-KdzZeNtuy" name="Page-1">
    <mxGraphModel dx="951" dy="436" grid="0" gridSize="10" guides="1" tooltips="1" connect="1" arrows="1" fold="1" page="1" pageScale="1" pageWidth="827" pageHeight="1169" math="0" shadow="0">
      <root>
        <mxCell id="WIyWlLk6GJQsqaUBKTNV-0" />
        <mxCell id="WIyWlLk6GJQsqaUBKTNV-1" parent="WIyWlLk6GJQsqaUBKTNV-0" />
        <mxCell id="RraagNXIUUJIRj-WyTPG-0" style="edgeStyle=orthogonalEdgeStyle;rounded=0;orthogonalLoop=1;jettySize=auto;html=1;exitX=0.5;exitY=1;exitDx=0;exitDy=0;entryX=0.5;entryY=0;entryDx=0;entryDy=0;" edge="1" parent="WIyWlLk6GJQsqaUBKTNV-1" source="RraagNXIUUJIRj-WyTPG-1" target="RraagNXIUUJIRj-WyTPG-6">
          <mxGeometry relative="1" as="geometry" />
        </mxCell>
        <mxCell id="RraagNXIUUJIRj-WyTPG-1" value="直属领导" style="rounded=1;whiteSpace=wrap;html=1;fontSize=12;glass=0;strokeWidth=1;shadow=0;" vertex="1" parent="WIyWlLk6GJQsqaUBKTNV-1">
          <mxGeometry x="160" y="210" width="120" height="40" as="geometry" />
        </mxCell>
        <mxCell id="RraagNXIUUJIRj-WyTPG-2" style="edgeStyle=orthogonalEdgeStyle;rounded=0;orthogonalLoop=1;jettySize=auto;html=1;exitX=0.5;exitY=1;exitDx=0;exitDy=0;entryX=0.5;entryY=0;entryDx=0;entryDy=0;" edge="1" parent="WIyWlLk6GJQsqaUBKTNV-1" source="RraagNXIUUJIRj-WyTPG-3" target="RraagNXIUUJIRj-WyTPG-1">
          <mxGeometry relative="1" as="geometry" />
        </mxCell>
        <mxCell id="RraagNXIUUJIRj-WyTPG-3" value="开始" style="ellipse;whiteSpace=wrap;html=1;aspect=fixed;fillColor=#dae8fc;strokeColor=#6c8ebf;" vertex="1" parent="WIyWlLk6GJQsqaUBKTNV-1">
          <mxGeometry x="195" y="80" width="50" height="50" as="geometry" />
        </mxCell>
        <mxCell id="RraagNXIUUJIRj-WyTPG-4" value="结束" style="ellipse;whiteSpace=wrap;html=1;aspect=fixed;fillColor=#d5e8d4;strokeColor=#82b366;" vertex="1" parent="WIyWlLk6GJQsqaUBKTNV-1">
          <mxGeometry x="195" y="418" width="50" height="50" as="geometry" />
        </mxCell>
        <mxCell id="RraagNXIUUJIRj-WyTPG-5" style="edgeStyle=orthogonalEdgeStyle;rounded=0;orthogonalLoop=1;jettySize=auto;html=1;exitX=0.5;exitY=1;exitDx=0;exitDy=0;entryX=0.5;entryY=0;entryDx=0;entryDy=0;" edge="1" parent="WIyWlLk6GJQsqaUBKTNV-1" source="RraagNXIUUJIRj-WyTPG-6" target="RraagNXIUUJIRj-WyTPG-4">
          <mxGeometry relative="1" as="geometry" />
        </mxCell>
        <mxCell id="RraagNXIUUJIRj-WyTPG-6" value="招聘专员" style="rounded=1;whiteSpace=wrap;html=1;fontSize=12;glass=0;strokeWidth=1;shadow=0;" vertex="1" parent="WIyWlLk6GJQsqaUBKTNV-1">
          <mxGeometry x="160" y="280" width="120" height="40" as="geometry" />
        </mxCell>
        <mxCell id="RraagNXIUUJIRj-WyTPG-7" value="申请人" style="rounded=1;whiteSpace=wrap;html=1;fontSize=12;glass=0;strokeWidth=1;shadow=0;" vertex="1" parent="WIyWlLk6GJQsqaUBKTNV-1">
          <mxGeometry x="160" y="140" width="120" height="40" as="geometry" />
        </mxCell>
        <mxCell id="RraagNXIUUJIRj-WyTPG-8" value="面试官" style="rounded=1;whiteSpace=wrap;html=1;fontSize=12;glass=0;strokeWidth=1;shadow=0;" vertex="1" parent="WIyWlLk6GJQsqaUBKTNV-1">
          <mxGeometry x="160" y="350" width="120" height="40" as="geometry" />
        </mxCell>
      </root>
    </mxGraphModel>
  </diagram>
</mxfile>
